# xmcd CD database file
#
# Track frame offsets:
#	150
#	134973
#	269531
#
# Disc length: 4211 seconds
#
# Revision: 0
# Processed by: cddbd v1.5.1PL0 Copyright (c) Steve Scherf et al.
# Submitted via: CDex 1.51
#
DISCID=30107103
DTITLE=Arden Wilken - Il Nastro Del Cervello
DYEAR=1997
DGENRE=New Age
TTITLE0=Exercises For Beta, Alpha, Theta, Delta Brain-Wave States
TTITLE1=Left...Right...Togher...Balancing The Hemispheres
TTITLE2=Expansion
EXTD=YEAR: 1997
EXTT0=
EXTT1=
EXTT2=
PLAYORDER=
